<svg xmlns="http://www.w3.org/2000/svg" viewBox="0 0 1000 1000"><rect width="1000" height="1000" rx="200"/><path fill="#fff" d="M291.4 425.3c-2.4-6-6-11.7-12.1-16.9-8.4-6.8-17.3-9.6-28.9-9.6-24.9 0-37.8 14.9-37.8 32.1 0 8 2.8 22.1 28.9 32.6l26.9 10.9c49.4 20.1 63.1 48.2 63.1 78.8 0 51-36.2 86-86.4 86-30.9 0-49.4-11.7-63.1-26.9-14.5-16.1-20.9-33.8-22.5-52.2l40.6-8.8c0 13.3 4.8 25.7 11.3 34.2 7.6 9.6 18.9 16.1 35 16.1 24.9 0 44.2-18.1 44.2-45 0-27.3-20.9-38.6-38.6-45.8l-25.7-10.9c-22.1-9.2-54.7-27.7-54.7-67.9 0-36.2 28.1-70.7 78.4-70.7 28.9 0 45.4 10.9 53.8 18.1 7.2 6.4 14.9 15.7 20.5 26.9l-32.9 19zm147.9-59.5c37.4 0 69.9 4 99.7 26.1 32.6 24.5 51.4 63.5 51.4 108.1 0 44.6-18.5 83.2-53.8 108.1-31.3 22.1-60.7 25.7-98.1 25.7H383v-268h56.3zM424 595.2h17.7c20.1 0 47.8-1.6 71.1-18.9 18.5-14.1 36.6-39.8 36.6-76.4 0-35.4-16.9-63.1-36.2-77.2-23.3-16.9-51.8-18.5-71.5-18.5H424v191zm416.4-166.7c-29.7-26.9-57.5-29.7-72.7-29.7-58.3 0-97.7 43-97.7 102.1 0 56.7 41 100.5 98.1 100.5 32.1 0 57.1-16.5 72.3-30.9V619c-27 16-55.1 20-73.6 20-48.6 0-79.2-22.1-94.8-37-31.3-29.3-43-63.5-43-101.3 0-49.4 20.5-83.6 43-104.9 27.7-26.1 59.9-35 96.8-35 24.5 0 48.2 4.4 71.5 19.3v48.4z"/></svg>
