<svg width="1000" height="1000" viewBox="0 0 1000 1000" fill="none" xmlns="http://www.w3.org/2000/svg"><rect width="1000" height="1000" x="0" y="0" rx="200" fill="black"/><path d="M452 244c-17.7 0-32 14.3-32 32s14.3 32 32 32h16v34.4C368.3 357.8 292 444 292 548c0 114.9 93.1 208 208 208s208-93.1 208-208c0-41.8-12.3-80.7-33.5-113.2l24.1-24.1c12.5-12.5 12.5-32.8 0-45.3s-32.8-12.5-45.3 0L631.7 387c-28.1-23-62.2-38.8-99.7-44.6V308h16c17.7 0 32-14.3 32-32s-14.3-32-32-32h-48zm72 192v128c0 13.3-10.7 24-24 24s-24-10.7-24-24V436c0-13.3 10.7-24 24-24s24 10.7 24 24z" fill="white"/></svg>
