<?xml version="1.0" encoding="UTF-8" standalone="no"?>
<!-- Generator: Adobe Illustrator 23.0.0, SVG Export Plug-In . SVG Version: 6.00 Build 0)  -->

<svg
   version="1.1"
   x="0px"
   y="0px"
   viewBox="0 0 1000 1000"
   style="enable-background:new 0 0 1000 1000;"
   xml:space="preserve"
   id="svg3"
   sodipodi:docname="timer.svg"
   inkscape:version="1.4 (e7c3feb1, 2024-10-09)"
   xmlns:inkscape="http://www.inkscape.org/namespaces/inkscape"
   xmlns:sodipodi="http://sodipodi.sourceforge.net/DTD/sodipodi-0.dtd"
   xmlns="http://www.w3.org/2000/svg"
   xmlns:svg="http://www.w3.org/2000/svg"><defs
   id="defs3" /><sodipodi:namedview
   id="namedview3"
   pagecolor="#ffffff"
   bordercolor="#000000"
   borderopacity="0.25"
   inkscape:showpageshadow="2"
   inkscape:pageopacity="0.0"
   inkscape:pagecheckerboard="0"
   inkscape:deskcolor="#d1d1d1"
   inkscape:zoom="0.48844315"
   inkscape:cx="503.641"
   inkscape:cy="559.94234"
   inkscape:window-width="1456"
   inkscape:window-height="872"
   inkscape:window-x="8"
   inkscape:window-y="46"
   inkscape:window-maximized="0"
   inkscape:current-layer="svg3" />
<style
   type="text/css"
   id="style1">
	.st0{fill:#FFFFFF;}
</style>
<rect
   style="fill:#000000;stroke-width:0.997841"
   id="rect4"
   width="1000"
   height="1000"
   x="0"
   y="0"
   rx="200" />

<path
   fill="currentColor"
   d="m 452,244 c -17.7,0 -32,14.3 -32,32 0,17.7 14.3,32 32,32 h 16 v 34.4 C 368.3,357.8 292,444 292,548 c 0,114.9 93.1,208 208,208 114.9,0 208,-93.1 208,-208 0,-41.8 -12.3,-80.7 -33.5,-113.2 l 24.1,-24.1 c 12.5,-12.5 12.5,-32.8 0,-45.3 -12.5,-12.5 -32.8,-12.5 -45.3,0 L 631.7,387 C 603.6,364 569.5,348.2 532,342.4 V 308 h 16 c 17.7,0 32,-14.3 32,-32 0,-17.7 -14.3,-32 -32,-32 h -48 z m 72,192 v 128 c 0,13.3 -10.7,24 -24,24 -13.3,0 -24,-10.7 -24,-24 V 436 c 0,-13.3 10.7,-24 24,-24 13.3,0 24,10.7 24,24 z"
   id="path1-9"
   style="fill:#ffffff" /></svg>
